<?xml version="1.0" encoding="utf-8"?>
<!-- Generator: Adobe Illustrator 25.2.1, SVG Export Plug-In . SVG Version: 6.00 Build 0)  -->
<svg version="1.1" id="Layer_1" xmlns="http://www.w3.org/2000/svg" xmlns:xlink="http://www.w3.org/1999/xlink" x="0px" y="0px"
	 viewBox="0 0 512 512" style="enable-background:new 0 0 512 512;" xml:space="preserve">
<style type="text/css">
	.st0{fill:#A408FF;}
</style>
<path class="st0" d="M64.4,296.6c4.3,4.3,10.8,5.6,16.3,3.2c5.6-2.3,9.3-7.8,9.3-13.9v-30h76c33.1,0,60,26.9,60,60v181
	c0,8.3,6.7,15,15,15h30c8.3,0,15-6.7,15-15V316c0-66.2-53.8-120-120-120H90v-30c0-6.1-3.6-11.5-9.3-13.9c-5.6-2.3-12-1-16.3,3.2
	l-60,60c-5.9,5.9-5.9,15.4,0,21.2L64.4,296.6z"/>
<path class="st0" d="M256,196.8c9.3-7,19.2-13.3,30-18.1V90h30c6.1,0,11.5-3.6,13.9-9.3c2.3-5.6,1-12.1-3.2-16.3l-60-60
	C263.7,1.5,259.8,0,256,0c-3.8,0-7.7,1.5-10.6,4.4l-60,60c-4.3,4.3-5.6,10.7-3.2,16.3c2.3,5.6,7.8,9.3,13.9,9.3h30v88.7
	C236.8,183.5,246.7,189.7,256,196.8z"/>
<path class="st0" d="M447.6,155.4c-4.3-4.3-10.7-5.6-16.3-3.2c-5.6,2.3-9.3,7.8-9.3,13.9v30h-76c-25.2,0-48.6,7.9-68,21.3
	c13.4,15.2,23.6,33,30,52.7c10.4-8.6,23.5-13.9,38-13.9h76v30c0,6.1,3.6,11.5,9.3,13.9c5.6,2.3,12,1.1,16.3-3.2l60-60
	c5.9-5.9,5.9-15.4,0-21.2L447.6,155.4z"/>
</svg>
