<?xml version="1.0" encoding="utf-8"?>
<!-- Generator: Adobe Illustrator 25.2.1, SVG Export Plug-In . SVG Version: 6.00 Build 0)  -->
<svg version="1.1" id="Layer_1" xmlns="http://www.w3.org/2000/svg" xmlns:xlink="http://www.w3.org/1999/xlink" x="0px" y="0px"
	 viewBox="0 0 16 16" style="enable-background:new 0 0 16 16;" xml:space="preserve">
<style type="text/css">
	.st0{fill:#A408FF;}
</style>
<path class="st0" d="M2.5,4C2.8,4,3,3.8,3,3.5S2.8,3,2.5,3S2,3.2,2,3.5S2.2,4,2.5,4z M4.5,3.5C4.5,3.8,4.3,4,4,4S3.5,3.8,3.5,3.5
	S3.7,3,4,3S4.5,3.2,4.5,3.5z M5.5,4C5.8,4,6,3.8,6,3.5S5.8,3,5.5,3S5,3.2,5,3.5S5.2,4,5.5,4z"/>
<path class="st0" d="M2,1C0.9,1,0,1.9,0,3v10c0,1.1,0.9,2,2,2h12c1.1,0,2-0.9,2-2V3c0-1.1-0.9-2-2-2H2z M15,3v2H1V3c0-0.6,0.4-1,1-1
	h12C14.6,2,15,2.4,15,3z M2,14c-0.6,0-1-0.4-1-1V6h14v7c0,0.6-0.4,1-1,1H2z"/>
</svg>
